<svg version="1.1" id="Layer_1" xmlns="http://www.w3.org/2000/svg" xmlns:xlink="http://www.w3.org/1999/xlink" x="0px" y="0px"
	 width="100%" viewBox="0 0 512 512" enable-background="new 0 0 512 512" xml:space="preserve">
<path fill="#A3D4F7" opacity="1.000000" stroke="none" 
	d="
M1.000000,439.000000 
	C1.000000,430.645782 1.000000,422.291534 1.289853,413.217834 
	C10.781461,367.783905 39.330051,344.410645 83.794456,338.434540 
	C83.193100,336.126251 82.688347,334.054321 82.113235,332.002167 
	C76.897469,313.390900 76.822670,294.768890 82.090118,276.166412 
	C87.932556,255.533371 98.799278,238.100967 115.260201,224.214966 
	C132.274277,209.862335 151.931427,201.975555 174.466797,199.984146 
	C176.757980,200.074860 178.588516,200.048447 180.418884,200.057632 
	C218.741089,200.249771 248.836243,216.047791 270.192719,247.905014 
	C274.398041,254.178009 277.413513,261.248627 281.110718,268.201447 
	C282.628845,267.652985 284.184998,267.134827 285.708527,266.533875 
	C321.355835,252.473328 363.923798,268.245056 381.761047,302.098206 
	C383.350983,305.115784 385.156250,308.019867 386.912964,311.369537 
	C387.660034,314.317230 388.499908,316.843445 389.014435,319.434235 
	C389.652374,322.646271 391.650208,323.015808 394.500122,322.974884 
	C404.409698,322.832642 414.453888,321.923798 424.209015,323.169403 
	C448.356018,326.252625 468.075348,338.312897 483.178253,357.020905 
	C498.796814,376.367676 505.777588,398.686768 504.202576,423.969025 
	C502.689880,448.251099 492.943970,468.531860 476.556427,485.590515 
	C465.286316,497.322144 451.119690,505.206421 435.326538,509.730896 
	C430.932800,510.989624 426.444763,511.919342 422.000000,513.000000 
	C306.645782,513.000000 191.291550,513.000000 75.209511,512.707764 
	C68.576210,510.886505 62.486401,509.853424 56.798420,507.739258 
	C36.579075,500.223877 21.036219,486.813782 11.173214,467.754791 
	C6.544488,458.810333 4.316148,448.623688 1.000000,439.000000 
z"/>
<path fill="#FFFFFF" opacity="1.000000" stroke="none" 
	d="
M422.468658,513.000000 
	C426.444763,511.919342 430.932800,510.989624 435.326538,509.730896 
	C451.119690,505.206421 465.286316,497.322144 476.556427,485.590515 
	C492.943970,468.531860 502.689880,448.251099 504.202576,423.969025 
	C505.777588,398.686768 498.796814,376.367676 483.178253,357.020905 
	C468.075348,338.312897 448.356018,326.252625 424.209015,323.169403 
	C414.453888,321.923798 404.409698,322.832642 394.500122,322.974884 
	C391.650208,323.015808 389.652374,322.646271 389.014435,319.434235 
	C388.499908,316.843445 387.660034,314.317230 387.088257,311.067383 
	C388.039032,309.851105 388.971954,309.444275 389.677551,308.791687 
	C404.823547,294.783051 417.258087,278.878174 425.173309,259.580139 
	C430.372040,246.905243 433.814270,233.780060 434.819763,220.256241 
	C435.908630,205.610825 434.833618,190.999649 431.074127,176.589325 
	C424.956116,153.138962 413.259552,132.923660 396.250763,115.943947 
	C384.563293,104.276466 370.812622,95.265808 355.481903,88.863815 
	C342.727692,83.537766 329.445526,79.953445 315.686676,79.166023 
	C306.304504,78.629089 296.812439,79.387047 287.405304,80.063423 
	C274.731567,80.974663 262.704651,84.697845 251.217438,89.991348 
	C234.669235,97.617065 219.510437,107.383575 207.963837,121.707413 
	C201.105682,130.215118 194.615036,139.143188 189.015579,148.513535 
	C179.623352,164.230942 176.180740,181.928696 174.006073,199.883606 
	C151.931427,201.975555 132.274277,209.862335 115.260201,224.214966 
	C98.799278,238.100967 87.932556,255.533371 82.090118,276.166412 
	C76.822670,294.768890 76.897469,313.390900 82.113235,332.002167 
	C82.688347,334.054321 83.193100,336.126251 83.794456,338.434540 
	C39.330051,344.410645 10.781461,367.783905 1.289853,412.749146 
	C1.000000,275.751190 1.000000,138.502365 1.000000,1.000000 
	C100.354080,1.000000 199.708389,1.000000 299.423401,1.333456 
	C296.093628,4.541684 294.988434,8.502729 294.995483,12.955725 
	C295.010498,22.439854 294.832703,31.928822 295.103973,41.405212 
	C295.184174,44.207191 295.990845,47.263771 297.368317,49.690804 
	C299.618805,53.656101 303.847412,54.130123 307.682434,52.833271 
	C311.951935,51.389515 313.909058,47.615120 313.963287,43.168175 
	C314.074921,34.018147 313.769684,24.857954 314.083862,15.717341 
	C314.280060,10.010794 313.387756,4.980188 309.000000,1.000000 
	C376.927032,1.000000 444.854034,1.000000 513.000000,1.000000 
	C513.000000,68.687401 513.000000,136.375046 512.667236,204.426849 
	C509.581390,203.198746 506.884583,200.359528 504.065277,200.232254 
	C492.470154,199.708771 480.835419,199.871918 469.220245,200.072891 
	C464.344208,200.157242 459.798767,205.348236 460.070862,209.782272 
	C460.355286,214.416718 464.597992,217.994644 469.843689,217.998001 
	C480.798492,218.005005 491.758270,217.807846 502.705719,218.091629 
	C507.285706,218.210342 510.583191,216.753510 513.000000,213.000000 
	C513.000000,312.888000 513.000000,412.776001 513.000000,513.000000 
	C482.979950,513.000000 452.958618,513.000000 422.468658,513.000000 
M469.997406,53.374271 
	C469.820312,49.536228 468.778320,45.805855 464.620087,45.062695 
	C461.502686,44.505554 456.920197,44.147469 455.050995,45.899551 
	C442.662933,57.511272 430.746155,69.633430 418.875580,81.784431 
	C415.677429,85.058083 416.255768,90.520332 419.438538,93.942886 
	C422.746674,97.500198 426.975616,98.099426 430.995117,95.424500 
	C432.764435,94.247063 434.498779,92.946548 436.004517,91.455078 
	C445.590393,81.960381 455.217041,72.501732 464.570343,62.781136 
	C466.871460,60.389690 468.208282,57.070377 469.997406,53.374271 
M173.500000,64.999992 
	C167.500519,59.005280 161.541260,52.969578 155.488083,47.029591 
	C151.115280,42.738575 145.503906,42.777855 141.524475,46.971951 
	C137.705597,50.996830 137.989624,55.475628 142.456726,59.957897 
	C153.609024,71.148071 164.781067,82.318657 175.972015,93.470184 
	C180.804199,98.285347 185.101425,98.368874 189.661224,93.841164 
	C193.387909,90.140717 193.085098,84.677711 188.806122,80.326469 
	C183.909027,75.346672 178.938568,70.439011 173.500000,64.999992 
z"/>
<path fill="#FFFFFF" opacity="1.000000" stroke="none" 
	d="
M1.000000,439.468658 
	C4.316148,448.623688 6.544488,458.810333 11.173214,467.754791 
	C21.036219,486.813782 36.579075,500.223877 56.798420,507.739258 
	C62.486401,509.853424 68.576210,510.886505 74.740852,512.707764 
	C50.406464,513.000000 25.812927,513.000000 1.000000,513.000000 
	C1.000000,488.646210 1.000000,464.291779 1.000000,439.468658 
z"/>
<path fill="#FDD020" opacity="1.000000" stroke="none" 
	d="
M308.550018,1.000000 
	C313.387756,4.980188 314.280060,10.010794 314.083862,15.717341 
	C313.769684,24.857954 314.074921,34.018147 313.963287,43.168175 
	C313.909058,47.615120 311.951935,51.389515 307.682434,52.833271 
	C303.847412,54.130123 299.618805,53.656101 297.368317,49.690804 
	C295.990845,47.263771 295.184174,44.207191 295.103973,41.405212 
	C294.832703,31.928822 295.010498,22.439854 294.995483,12.955725 
	C294.988434,8.502729 296.093628,4.541684 299.892029,1.333456 
	C302.700012,1.000000 305.400024,1.000000 308.550018,1.000000 
z"/>
<path fill="#FDD020" opacity="1.000000" stroke="none" 
	d="
M513.000000,212.555832 
	C510.583191,216.753510 507.285706,218.210342 502.705719,218.091629 
	C491.758270,217.807846 480.798492,218.005005 469.843689,217.998001 
	C464.597992,217.994644 460.355286,214.416718 460.070862,209.782272 
	C459.798767,205.348236 464.344208,200.157242 469.220245,200.072891 
	C480.835419,199.871918 492.470154,199.708771 504.065277,200.232254 
	C506.884583,200.359528 509.581390,203.198746 512.667236,204.895508 
	C513.000000,207.370560 513.000000,209.741104 513.000000,212.555832 
z"/>
<path fill="#FDD020" opacity="1.000000" stroke="none" 
	d="
M174.466797,199.984146 
	C176.180740,181.928696 179.623352,164.230942 189.015579,148.513535 
	C194.615036,139.143188 201.105682,130.215118 207.963837,121.707413 
	C219.510437,107.383575 234.669235,97.617065 251.217438,89.991348 
	C262.704651,84.697845 274.731567,80.974663 287.405304,80.063423 
	C296.812439,79.387047 306.304504,78.629089 315.686676,79.166023 
	C329.445526,79.953445 342.727692,83.537766 355.481903,88.863815 
	C370.812622,95.265808 384.563293,104.276466 396.250763,115.943947 
	C413.259552,132.923660 424.956116,153.138962 431.074127,176.589325 
	C434.833618,190.999649 435.908630,205.610825 434.819763,220.256241 
	C433.814270,233.780060 430.372040,246.905243 425.173309,259.580139 
	C417.258087,278.878174 404.823547,294.783051 389.677551,308.791687 
	C388.971954,309.444275 388.039032,309.851105 387.036743,310.674530 
	C385.156250,308.019867 383.350983,305.115784 381.761047,302.098206 
	C363.923798,268.245056 321.355835,252.473328 285.708527,266.533875 
	C284.184998,267.134827 282.628845,267.652985 281.110718,268.201447 
	C277.413513,261.248627 274.398041,254.178009 270.192719,247.905014 
	C248.836243,216.047791 218.741089,200.249771 180.418884,200.057632 
	C178.588516,200.048447 176.757980,200.074860 174.466797,199.984146 
z"/>
<path fill="#FDD020" opacity="1.000000" stroke="none" 
	d="
M469.992920,53.775944 
	C468.208282,57.070377 466.871460,60.389690 464.570343,62.781136 
	C455.217041,72.501732 445.590393,81.960381 436.004517,91.455078 
	C434.498779,92.946548 432.764435,94.247063 430.995117,95.424500 
	C426.975616,98.099426 422.746674,97.500198 419.438538,93.942886 
	C416.255768,90.520332 415.677429,85.058083 418.875580,81.784431 
	C430.746155,69.633430 442.662933,57.511272 455.050995,45.899551 
	C456.920197,44.147469 461.502686,44.505554 464.620087,45.062695 
	C468.778320,45.805855 469.820312,49.536228 469.992920,53.775944 
z"/>
<path fill="#FDD020" opacity="1.000000" stroke="none" 
	d="
M173.750000,65.250000 
	C178.938568,70.439011 183.909027,75.346672 188.806122,80.326469 
	C193.085098,84.677711 193.387909,90.140717 189.661224,93.841164 
	C185.101425,98.368874 180.804199,98.285347 175.972015,93.470184 
	C164.781067,82.318657 153.609024,71.148071 142.456726,59.957897 
	C137.989624,55.475628 137.705597,50.996830 141.524475,46.971951 
	C145.503906,42.777855 151.115280,42.738575 155.488083,47.029591 
	C161.541260,52.969578 167.500519,59.005280 173.750000,65.250000 
z"/>
</svg>